# xmcd CD database file
#
# Track frame offsets:
#	150
#	25079
#	59620
#	87047
#	123843
#	150534
#
# Disc length: 2198 seconds
#
# Revision: 0
# Processed by: cddbd v1.5.2PL0 Copyright (c) Steve Scherf et al.
# Submitted via: CDex 1.51
#
DISCID=3e089406
DTITLE=David Schnitter - Thundering
DYEAR=1900
DGENRE=Jazz
TTITLE0=Thundering
TTITLE1=Stardust
TTITLE2=Flying Colors
TTITLE3=Caa Purange
TTITLE4=Herb's Blus
TTITLE5=There Goes The Ball Game
EXTD=
EXTT0=
EXTT1=
EXTT2=
EXTT3=
EXTT4=
EXTT5=
PLAYORDER=
